<mxfile host="app.diagrams.net" modified="2022-12-30T13:08:10.435Z" agent="5.0 (X11)" etag="LMBjpvJQgBFz1AH9G8mJ" version="20.6.2" type="github">
  <diagram name="Page-1" id="13e1069c-82ec-6db2-03f1-153e76fe0fe0">
    <mxGraphModel dx="782" dy="708" grid="1" gridSize="10" guides="1" tooltips="1" connect="1" arrows="1" fold="1" page="1" pageScale="1" pageWidth="1100" pageHeight="850" background="none" math="0" shadow="0">
      <root>
        <mxCell id="0" />
        <mxCell id="1" parent="0" />
        <mxCell id="72DZMyQN9BtNW1HfkKe4-19" value="alt: (note)" style="shape=umlFrame;whiteSpace=wrap;html=1;" vertex="1" parent="1">
          <mxGeometry x="50" y="590" width="890" height="160" as="geometry" />
        </mxCell>
        <mxCell id="72DZMyQN9BtNW1HfkKe4-14" value="alt: &amp;gt;0" style="shape=umlFrame;whiteSpace=wrap;html=1;" vertex="1" parent="1">
          <mxGeometry x="520" y="470" width="250" height="50" as="geometry" />
        </mxCell>
        <mxCell id="72DZMyQN9BtNW1HfkKe4-3" value="alt: yes" style="shape=umlFrame;whiteSpace=wrap;html=1;" vertex="1" parent="1">
          <mxGeometry x="30" y="260" width="1060" height="110" as="geometry" />
        </mxCell>
        <mxCell id="7baba1c4bc27f4b0-2" value="Remove button" style="shape=umlLifeline;perimeter=lifelinePerimeter;whiteSpace=wrap;html=1;container=1;collapsible=0;recursiveResize=0;outlineConnect=0;rounded=1;shadow=0;comic=0;labelBackgroundColor=none;strokeWidth=1;fontFamily=Verdana;fontSize=12;align=center;" parent="1" vertex="1">
          <mxGeometry x="240" y="80" width="100" height="1130" as="geometry" />
        </mxCell>
        <mxCell id="7baba1c4bc27f4b0-10" value="" style="html=1;points=[];perimeter=orthogonalPerimeter;rounded=0;shadow=0;comic=0;labelBackgroundColor=none;strokeWidth=1;fontFamily=Verdana;fontSize=12;align=center;" parent="7baba1c4bc27f4b0-2" vertex="1">
          <mxGeometry x="45" y="100" width="10" height="970" as="geometry" />
        </mxCell>
        <mxCell id="7baba1c4bc27f4b0-3" value="Power latch" style="shape=umlLifeline;perimeter=lifelinePerimeter;whiteSpace=wrap;html=1;container=1;collapsible=0;recursiveResize=0;outlineConnect=0;rounded=1;shadow=0;comic=0;labelBackgroundColor=none;strokeWidth=1;fontFamily=Verdana;fontSize=12;align=center;" parent="1" vertex="1">
          <mxGeometry x="400" y="80" width="110" height="1130" as="geometry" />
        </mxCell>
        <mxCell id="72DZMyQN9BtNW1HfkKe4-8" value="alt: no" style="shape=umlFrame;whiteSpace=wrap;html=1;" vertex="1" parent="7baba1c4bc27f4b0-3">
          <mxGeometry x="-370" y="280" width="1060" height="810" as="geometry" />
        </mxCell>
        <mxCell id="7baba1c4bc27f4b0-13" value="" style="html=1;points=[];perimeter=orthogonalPerimeter;rounded=0;shadow=0;comic=0;labelBackgroundColor=none;strokeWidth=1;fontFamily=Verdana;fontSize=12;align=center;" parent="7baba1c4bc27f4b0-3" vertex="1">
          <mxGeometry x="45" y="100" width="10" height="970" as="geometry" />
        </mxCell>
        <mxCell id="72DZMyQN9BtNW1HfkKe4-7" value="set alarm" style="html=1;verticalAlign=bottom;endArrow=block;rounded=0;exitX=0.5;exitY=0.243;exitDx=0;exitDy=0;exitPerimeter=0;entryX=0.9;entryY=0.295;entryDx=0;entryDy=0;entryPerimeter=0;" edge="1" parent="7baba1c4bc27f4b0-3">
          <mxGeometry width="80" relative="1" as="geometry">
            <mxPoint x="191" y="270.10999999999996" as="sourcePoint" />
            <mxPoint x="-245" y="269.99999999999994" as="targetPoint" />
          </mxGeometry>
        </mxCell>
        <mxCell id="7baba1c4bc27f4b0-4" value="Arduino uC" style="shape=umlLifeline;perimeter=lifelinePerimeter;whiteSpace=wrap;html=1;container=1;collapsible=0;recursiveResize=0;outlineConnect=0;rounded=1;shadow=0;comic=0;labelBackgroundColor=none;strokeWidth=1;fontFamily=Verdana;fontSize=12;align=center;" parent="1" vertex="1">
          <mxGeometry x="540" y="80" width="100" height="1120" as="geometry" />
        </mxCell>
        <mxCell id="72DZMyQN9BtNW1HfkKe4-5" value="store name" style="html=1;verticalAlign=bottom;endArrow=block;rounded=0;exitX=0.9;exitY=0.276;exitDx=0;exitDy=0;exitPerimeter=0;" edge="1" parent="7baba1c4bc27f4b0-4">
          <mxGeometry width="80" relative="1" as="geometry">
            <mxPoint x="55" y="236.1199999999999" as="sourcePoint" />
            <mxPoint x="186" y="236" as="targetPoint" />
            <Array as="points">
              <mxPoint x="161" y="236" />
            </Array>
          </mxGeometry>
        </mxCell>
        <mxCell id="72DZMyQN9BtNW1HfkKe4-13" value="set sys time" style="edgeStyle=orthogonalEdgeStyle;html=1;align=left;spacingLeft=2;endArrow=block;rounded=0;entryX=1;entryY=0;" edge="1" parent="7baba1c4bc27f4b0-4">
          <mxGeometry relative="1" as="geometry">
            <mxPoint x="50" y="335" as="sourcePoint" />
            <Array as="points">
              <mxPoint x="80" y="335" />
            </Array>
            <mxPoint x="55" y="355" as="targetPoint" />
          </mxGeometry>
        </mxCell>
        <mxCell id="7baba1c4bc27f4b0-5" value="Arduino EEPROM" style="shape=umlLifeline;perimeter=lifelinePerimeter;whiteSpace=wrap;html=1;container=1;collapsible=0;recursiveResize=0;outlineConnect=0;rounded=1;shadow=0;comic=0;labelBackgroundColor=none;strokeWidth=1;fontFamily=Verdana;fontSize=12;align=center;" parent="1" vertex="1">
          <mxGeometry x="680" y="80" width="100" height="1120" as="geometry" />
        </mxCell>
        <mxCell id="72DZMyQN9BtNW1HfkKe4-30" value="def: yes" style="shape=umlFrame;whiteSpace=wrap;html=1;strokeWidth=1;" vertex="1" parent="7baba1c4bc27f4b0-5">
          <mxGeometry x="-620" y="720" width="990" height="200" as="geometry" />
        </mxCell>
        <mxCell id="72DZMyQN9BtNW1HfkKe4-32" value="alt: SD present" style="shape=umlFrame;whiteSpace=wrap;html=1;strokeWidth=1;" vertex="1" parent="7baba1c4bc27f4b0-5">
          <mxGeometry x="-170" y="760" width="410" height="50" as="geometry" />
        </mxCell>
        <mxCell id="72DZMyQN9BtNW1HfkKe4-34" value="alt: SD absent" style="shape=umlFrame;whiteSpace=wrap;html=1;strokeWidth=1;" vertex="1" parent="7baba1c4bc27f4b0-5">
          <mxGeometry x="-170" y="810" width="410" height="50" as="geometry" />
        </mxCell>
        <mxCell id="7baba1c4bc27f4b0-6" value="SD card board" style="shape=umlLifeline;perimeter=lifelinePerimeter;whiteSpace=wrap;html=1;container=1;collapsible=0;recursiveResize=0;outlineConnect=0;rounded=1;shadow=0;comic=0;labelBackgroundColor=none;strokeWidth=1;fontFamily=Verdana;fontSize=12;align=center;" parent="1" vertex="1">
          <mxGeometry x="820" y="80" width="100" height="1130" as="geometry" />
        </mxCell>
        <mxCell id="7baba1c4bc27f4b0-28" value="" style="html=1;points=[];perimeter=orthogonalPerimeter;rounded=0;shadow=0;comic=0;labelBackgroundColor=none;strokeWidth=1;fontFamily=Verdana;fontSize=12;align=center;" parent="7baba1c4bc27f4b0-6" vertex="1">
          <mxGeometry x="45" y="140" width="10" height="940" as="geometry" />
        </mxCell>
        <mxCell id="7baba1c4bc27f4b0-7" value="Env sensor" style="shape=umlLifeline;perimeter=lifelinePerimeter;whiteSpace=wrap;html=1;container=1;collapsible=0;recursiveResize=0;outlineConnect=0;rounded=1;shadow=0;comic=0;labelBackgroundColor=none;strokeWidth=1;fontFamily=Verdana;fontSize=12;align=center;" parent="1" vertex="1">
          <mxGeometry x="960" y="80" width="100" height="1130" as="geometry" />
        </mxCell>
        <mxCell id="7baba1c4bc27f4b0-8" value="Real-time clock" style="shape=umlLifeline;perimeter=lifelinePerimeter;whiteSpace=wrap;html=1;container=1;collapsible=0;recursiveResize=0;outlineConnect=0;rounded=1;shadow=0;comic=0;labelBackgroundColor=none;strokeWidth=1;fontFamily=Verdana;fontSize=12;align=center;" parent="1" vertex="1">
          <mxGeometry x="100" y="80" width="100" height="1140" as="geometry" />
        </mxCell>
        <mxCell id="7baba1c4bc27f4b0-9" value="" style="html=1;points=[];perimeter=orthogonalPerimeter;rounded=0;shadow=0;comic=0;labelBackgroundColor=none;strokeWidth=1;fontFamily=Verdana;fontSize=12;align=center;" parent="7baba1c4bc27f4b0-8" vertex="1">
          <mxGeometry x="45" y="100" width="10" height="970" as="geometry" />
        </mxCell>
        <mxCell id="72DZMyQN9BtNW1HfkKe4-1" value="alarm" style="html=1;verticalAlign=bottom;endArrow=block;rounded=0;" edge="1" parent="7baba1c4bc27f4b0-8" target="7baba1c4bc27f4b0-3">
          <mxGeometry width="80" relative="1" as="geometry">
            <mxPoint x="50" y="120" as="sourcePoint" />
            <mxPoint x="130" y="120" as="targetPoint" />
          </mxGeometry>
        </mxCell>
        <mxCell id="7baba1c4bc27f4b0-16" value="" style="html=1;points=[];perimeter=orthogonalPerimeter;rounded=0;shadow=0;comic=0;labelBackgroundColor=none;strokeWidth=1;fontFamily=Verdana;fontSize=12;align=center;" parent="1" vertex="1">
          <mxGeometry x="585" y="220" width="10" height="940" as="geometry" />
        </mxCell>
        <mxCell id="7baba1c4bc27f4b0-17" value="power on" style="html=1;verticalAlign=bottom;endArrow=block;labelBackgroundColor=none;fontFamily=Verdana;fontSize=12;edgeStyle=elbowEdgeStyle;elbow=vertical;" parent="1" source="7baba1c4bc27f4b0-13" target="7baba1c4bc27f4b0-7" edge="1">
          <mxGeometry relative="1" as="geometry">
            <mxPoint x="510" y="220" as="sourcePoint" />
            <Array as="points">
              <mxPoint x="460" y="220" />
            </Array>
          </mxGeometry>
        </mxCell>
        <mxCell id="7baba1c4bc27f4b0-19" value="" style="html=1;points=[];perimeter=orthogonalPerimeter;rounded=0;shadow=0;comic=0;labelBackgroundColor=none;strokeWidth=1;fontFamily=Verdana;fontSize=12;align=center;" parent="1" vertex="1">
          <mxGeometry x="725" y="220" width="10" height="940" as="geometry" />
        </mxCell>
        <mxCell id="7baba1c4bc27f4b0-25" value="" style="html=1;points=[];perimeter=orthogonalPerimeter;rounded=0;shadow=0;comic=0;labelBackgroundColor=none;strokeColor=#000000;strokeWidth=1;fillColor=#FFFFFF;fontFamily=Verdana;fontSize=12;fontColor=#000000;align=center;" parent="1" vertex="1">
          <mxGeometry x="1005" y="220" width="10" height="940" as="geometry" />
        </mxCell>
        <mxCell id="7baba1c4bc27f4b0-40" value="Note" style="shape=note;whiteSpace=wrap;html=1;size=14;verticalAlign=top;align=left;spacingTop=-6;rounded=0;shadow=0;comic=0;labelBackgroundColor=none;strokeWidth=1;fontFamily=Verdana;fontSize=12" parent="1" vertex="1">
          <mxGeometry x="100" y="30" width="100" height="35" as="geometry" />
        </mxCell>
        <mxCell id="7baba1c4bc27f4b0-41" value="Note" style="shape=note;whiteSpace=wrap;html=1;size=14;verticalAlign=top;align=left;spacingTop=-6;rounded=0;shadow=0;comic=0;labelBackgroundColor=none;strokeWidth=1;fontFamily=Verdana;fontSize=12" parent="1" vertex="1">
          <mxGeometry x="240" y="30" width="100" height="35" as="geometry" />
        </mxCell>
        <mxCell id="7baba1c4bc27f4b0-42" value="Note" style="shape=note;whiteSpace=wrap;html=1;size=14;verticalAlign=top;align=left;spacingTop=-6;rounded=0;shadow=0;comic=0;labelBackgroundColor=none;strokeWidth=1;fontFamily=Verdana;fontSize=12" parent="1" vertex="1">
          <mxGeometry x="400" y="30" width="100" height="35" as="geometry" />
        </mxCell>
        <mxCell id="7baba1c4bc27f4b0-43" value="Note" style="shape=note;whiteSpace=wrap;html=1;size=14;verticalAlign=top;align=left;spacingTop=-6;rounded=0;shadow=0;comic=0;labelBackgroundColor=none;strokeWidth=1;fontFamily=Verdana;fontSize=12" parent="1" vertex="1">
          <mxGeometry x="540" y="30" width="100" height="35" as="geometry" />
        </mxCell>
        <mxCell id="7baba1c4bc27f4b0-44" value="Note" style="shape=note;whiteSpace=wrap;html=1;size=14;verticalAlign=top;align=left;spacingTop=-6;rounded=0;shadow=0;comic=0;labelBackgroundColor=none;strokeWidth=1;fontFamily=Verdana;fontSize=12" parent="1" vertex="1">
          <mxGeometry x="680" y="30" width="100" height="35" as="geometry" />
        </mxCell>
        <mxCell id="7baba1c4bc27f4b0-45" value="Note" style="shape=note;whiteSpace=wrap;html=1;size=14;verticalAlign=top;align=left;spacingTop=-6;rounded=0;shadow=0;comic=0;labelBackgroundColor=none;strokeWidth=1;fontFamily=Verdana;fontSize=12" parent="1" vertex="1">
          <mxGeometry x="820" y="30" width="100" height="35" as="geometry" />
        </mxCell>
        <mxCell id="7baba1c4bc27f4b0-46" value="Note" style="shape=note;whiteSpace=wrap;html=1;size=14;verticalAlign=top;align=left;spacingTop=-6;rounded=0;shadow=0;comic=0;labelBackgroundColor=none;strokeWidth=1;fontFamily=Verdana;fontSize=12" parent="1" vertex="1">
          <mxGeometry x="960" y="30" width="100" height="35" as="geometry" />
        </mxCell>
        <mxCell id="72DZMyQN9BtNW1HfkKe4-2" value="first power-on?" style="html=1;verticalAlign=bottom;endArrow=block;rounded=0;" edge="1" parent="1" source="7baba1c4bc27f4b0-4" target="7baba1c4bc27f4b0-5">
          <mxGeometry width="80" relative="1" as="geometry">
            <mxPoint x="620" y="370" as="sourcePoint" />
            <mxPoint x="690" y="260" as="targetPoint" />
            <Array as="points">
              <mxPoint x="690" y="250" />
            </Array>
          </mxGeometry>
        </mxCell>
        <mxCell id="72DZMyQN9BtNW1HfkKe4-4" value="get station name, time" style="html=1;verticalAlign=bottom;endArrow=block;rounded=0;" edge="1" parent="1" source="7baba1c4bc27f4b0-16" target="7baba1c4bc27f4b0-28">
          <mxGeometry width="80" relative="1" as="geometry">
            <mxPoint x="660" y="360" as="sourcePoint" />
            <mxPoint x="740" y="360" as="targetPoint" />
            <Array as="points">
              <mxPoint x="620" y="290" />
              <mxPoint x="660" y="290" />
            </Array>
          </mxGeometry>
        </mxCell>
        <mxCell id="72DZMyQN9BtNW1HfkKe4-6" value="set clock" style="html=1;verticalAlign=bottom;endArrow=block;rounded=0;exitX=-0.1;exitY=0.09;exitDx=0;exitDy=0;exitPerimeter=0;" edge="1" parent="1" source="7baba1c4bc27f4b0-16" target="7baba1c4bc27f4b0-9">
          <mxGeometry width="80" relative="1" as="geometry">
            <mxPoint x="660" y="360" as="sourcePoint" />
            <mxPoint x="170" y="310" as="targetPoint" />
          </mxGeometry>
        </mxCell>
        <mxCell id="72DZMyQN9BtNW1HfkKe4-9" value="get time now" style="html=1;verticalAlign=bottom;endArrow=block;rounded=0;exitX=0.5;exitY=0.243;exitDx=0;exitDy=0;exitPerimeter=0;" edge="1" parent="1" target="7baba1c4bc27f4b0-9">
          <mxGeometry width="80" relative="1" as="geometry">
            <mxPoint x="585" y="400.1099999999999" as="sourcePoint" />
            <mxPoint x="170" y="400" as="targetPoint" />
          </mxGeometry>
        </mxCell>
        <mxCell id="72DZMyQN9BtNW1HfkKe4-10" value="get remove time" style="html=1;verticalAlign=bottom;endArrow=block;rounded=0;exitX=0.9;exitY=0.645;exitDx=0;exitDy=0;exitPerimeter=0;" edge="1" parent="1" target="7baba1c4bc27f4b0-19">
          <mxGeometry width="80" relative="1" as="geometry">
            <mxPoint x="594" y="460.79999999999995" as="sourcePoint" />
            <mxPoint x="725" y="464.0999999999999" as="targetPoint" />
          </mxGeometry>
        </mxCell>
        <mxCell id="72DZMyQN9BtNW1HfkKe4-15" value="decrement remove time" style="html=1;verticalAlign=bottom;endArrow=block;rounded=0;exitX=0.9;exitY=0.645;exitDx=0;exitDy=0;exitPerimeter=0;" edge="1" parent="1" target="7baba1c4bc27f4b0-19">
          <mxGeometry width="80" relative="1" as="geometry">
            <mxPoint x="595" y="499.99999999999994" as="sourcePoint" />
            <mxPoint x="723" y="502.2" as="targetPoint" />
          </mxGeometry>
        </mxCell>
        <mxCell id="72DZMyQN9BtNW1HfkKe4-17" value="removal requested?" style="html=1;verticalAlign=bottom;endArrow=block;rounded=0;exitX=1.1;exitY=0.346;exitDx=0;exitDy=0;exitPerimeter=0;" edge="1" parent="1" source="7baba1c4bc27f4b0-16" target="7baba1c4bc27f4b0-19">
          <mxGeometry width="80" relative="1" as="geometry">
            <mxPoint x="610" y="554.5" as="sourcePoint" />
            <mxPoint x="690" y="554.5" as="targetPoint" />
          </mxGeometry>
        </mxCell>
        <mxCell id="72DZMyQN9BtNW1HfkKe4-18" value="SD card present?" style="html=1;verticalAlign=bottom;endArrow=block;rounded=0;exitX=0.5;exitY=0.574;exitDx=0;exitDy=0;exitPerimeter=0;" edge="1" parent="1">
          <mxGeometry width="80" relative="1" as="geometry">
            <mxPoint x="590" y="575.1399999999999" as="sourcePoint" />
            <mxPoint x="865" y="575.1399999999999" as="targetPoint" />
          </mxGeometry>
        </mxCell>
        <mxCell id="72DZMyQN9BtNW1HfkKe4-20" value="&lt;div&gt;Removal requested&lt;/div&gt;&lt;div&gt;AND&lt;/div&gt;&lt;div&gt;removal time expired&lt;/div&gt;&lt;div&gt;AND&lt;/div&gt;&lt;div&gt;SD card present&lt;br&gt;&lt;/div&gt;" style="text;html=1;align=center;verticalAlign=middle;whiteSpace=wrap;rounded=0;perimeterSpacing=2;strokeWidth=2;fillColor=#f5f5f5;fontColor=#333333;strokeColor=#666666;" vertex="1" parent="1">
          <mxGeometry x="180" y="450" width="150" height="80" as="geometry" />
        </mxCell>
        <mxCell id="72DZMyQN9BtNW1HfkKe4-21" value="" style="endArrow=none;dashed=1;html=1;dashPattern=1 3;strokeWidth=2;rounded=0;" edge="1" parent="1" source="72DZMyQN9BtNW1HfkKe4-19" target="72DZMyQN9BtNW1HfkKe4-20">
          <mxGeometry width="50" height="50" relative="1" as="geometry">
            <mxPoint x="340" y="480" as="sourcePoint" />
            <mxPoint x="390" y="430" as="targetPoint" />
          </mxGeometry>
        </mxCell>
        <mxCell id="72DZMyQN9BtNW1HfkKe4-22" value="clear first power-on" style="html=1;verticalAlign=bottom;endArrow=block;rounded=0;entryX=0.5;entryY=0.194;entryDx=0;entryDy=0;entryPerimeter=0;" edge="1" parent="1" source="7baba1c4bc27f4b0-16" target="7baba1c4bc27f4b0-19">
          <mxGeometry width="80" relative="1" as="geometry">
            <mxPoint x="610" y="340" as="sourcePoint" />
            <mxPoint x="690" y="340" as="targetPoint" />
          </mxGeometry>
        </mxCell>
        <mxCell id="72DZMyQN9BtNW1HfkKe4-23" value="get station name, time" style="html=1;verticalAlign=bottom;endArrow=block;rounded=0;exitX=0.5;exitY=0.639;exitDx=0;exitDy=0;exitPerimeter=0;" edge="1" parent="1">
          <mxGeometry width="80" relative="1" as="geometry">
            <mxPoint x="590" y="616.79" as="sourcePoint" />
            <mxPoint x="865" y="616.79" as="targetPoint" />
          </mxGeometry>
        </mxCell>
        <mxCell id="72DZMyQN9BtNW1HfkKe4-24" value="set clock" style="html=1;verticalAlign=bottom;endArrow=block;rounded=0;exitX=0.2;exitY=0.44;exitDx=0;exitDy=0;exitPerimeter=0;" edge="1" parent="1" source="7baba1c4bc27f4b0-16" target="7baba1c4bc27f4b0-9">
          <mxGeometry width="80" relative="1" as="geometry">
            <mxPoint x="600" y="309.90999999999997" as="sourcePoint" />
            <mxPoint x="165" y="309.90999999999997" as="targetPoint" />
          </mxGeometry>
        </mxCell>
        <mxCell id="72DZMyQN9BtNW1HfkKe4-25" value="store name" style="html=1;verticalAlign=bottom;endArrow=block;rounded=0;entryX=0.2;entryY=0.447;entryDx=0;entryDy=0;entryPerimeter=0;" edge="1" parent="1" source="7baba1c4bc27f4b0-16" target="7baba1c4bc27f4b0-19">
          <mxGeometry width="80" relative="1" as="geometry">
            <mxPoint x="605" y="650" as="sourcePoint" />
            <mxPoint x="710" y="640" as="targetPoint" />
          </mxGeometry>
        </mxCell>
        <mxCell id="72DZMyQN9BtNW1HfkKe4-26" value="clear removal request" style="html=1;verticalAlign=bottom;endArrow=block;rounded=0;exitX=1.2;exitY=0.539;exitDx=0;exitDy=0;exitPerimeter=0;" edge="1" parent="1" source="7baba1c4bc27f4b0-16" target="7baba1c4bc27f4b0-19">
          <mxGeometry width="80" relative="1" as="geometry">
            <mxPoint x="604" y="556.96" as="sourcePoint" />
            <mxPoint x="730" y="680" as="targetPoint" />
          </mxGeometry>
        </mxCell>
        <mxCell id="72DZMyQN9BtNW1HfkKe4-27" value="get/clr records, logs" style="html=1;verticalAlign=bottom;endArrow=block;rounded=0;exitX=1.3;exitY=0.478;exitDx=0;exitDy=0;exitPerimeter=0;" edge="1" parent="1" source="7baba1c4bc27f4b0-16" target="7baba1c4bc27f4b0-19">
          <mxGeometry width="80" relative="1" as="geometry">
            <mxPoint x="620" y="680" as="sourcePoint" />
            <mxPoint x="700" y="680" as="targetPoint" />
          </mxGeometry>
        </mxCell>
        <mxCell id="72DZMyQN9BtNW1HfkKe4-28" value="move records, logs" style="html=1;verticalAlign=bottom;endArrow=block;rounded=0;exitX=0.613;exitY=0.688;exitDx=0;exitDy=0;exitPerimeter=0;" edge="1" parent="1" source="72DZMyQN9BtNW1HfkKe4-19" target="7baba1c4bc27f4b0-28">
          <mxGeometry width="80" relative="1" as="geometry">
            <mxPoint x="630" y="690" as="sourcePoint" />
            <mxPoint x="865" y="709.1199999999999" as="targetPoint" />
          </mxGeometry>
        </mxCell>
        <mxCell id="72DZMyQN9BtNW1HfkKe4-29" value="alarm expired?" style="html=1;verticalAlign=bottom;endArrow=block;rounded=0;exitX=0;exitY=0.599;exitDx=0;exitDy=0;exitPerimeter=0;" edge="1" parent="1" source="7baba1c4bc27f4b0-16" target="7baba1c4bc27f4b0-9">
          <mxGeometry width="80" relative="1" as="geometry">
            <mxPoint x="400" y="720" as="sourcePoint" />
            <mxPoint x="480" y="720" as="targetPoint" />
          </mxGeometry>
        </mxCell>
        <mxCell id="72DZMyQN9BtNW1HfkKe4-31" value="collect env data" style="html=1;verticalAlign=bottom;endArrow=block;rounded=0;exitX=1.2;exitY=0.648;exitDx=0;exitDy=0;exitPerimeter=0;movable=1;resizable=1;rotatable=1;deletable=1;editable=1;connectable=1;" edge="1" parent="1" source="7baba1c4bc27f4b0-16" target="7baba1c4bc27f4b0-25">
          <mxGeometry width="80" relative="1" as="geometry">
            <mxPoint x="620" y="830" as="sourcePoint" />
            <mxPoint x="700" y="830" as="targetPoint" />
          </mxGeometry>
        </mxCell>
        <mxCell id="72DZMyQN9BtNW1HfkKe4-33" value="store env data" style="html=1;verticalAlign=bottom;endArrow=block;rounded=0;exitX=1.1;exitY=0.686;exitDx=0;exitDy=0;exitPerimeter=0;" edge="1" parent="1" source="7baba1c4bc27f4b0-16" target="7baba1c4bc27f4b0-28">
          <mxGeometry width="80" relative="1" as="geometry">
            <mxPoint x="610" y="864.5" as="sourcePoint" />
            <mxPoint x="690" y="864.5" as="targetPoint" />
          </mxGeometry>
        </mxCell>
        <mxCell id="72DZMyQN9BtNW1HfkKe4-35" value="store env data" style="html=1;verticalAlign=bottom;endArrow=block;rounded=0;exitX=1;exitY=0.739;exitDx=0;exitDy=0;exitPerimeter=0;" edge="1" parent="1" source="7baba1c4bc27f4b0-16" target="7baba1c4bc27f4b0-19">
          <mxGeometry width="80" relative="1" as="geometry">
            <mxPoint x="610" y="914.5" as="sourcePoint" />
            <mxPoint x="690" y="914.5" as="targetPoint" />
          </mxGeometry>
        </mxCell>
        <mxCell id="72DZMyQN9BtNW1HfkKe4-36" value="set alarm" style="html=1;verticalAlign=bottom;endArrow=block;rounded=0;exitX=-0.1;exitY=0.789;exitDx=0;exitDy=0;exitPerimeter=0;" edge="1" parent="1" source="7baba1c4bc27f4b0-16" target="7baba1c4bc27f4b0-9">
          <mxGeometry width="80" relative="1" as="geometry">
            <mxPoint x="630" y="810" as="sourcePoint" />
            <mxPoint x="710" y="810" as="targetPoint" />
          </mxGeometry>
        </mxCell>
      </root>
    </mxGraphModel>
  </diagram>
</mxfile>
